<mxfile host="app.diagrams.net" modified="2024-06-01T08:44:53.003Z" agent="Mozilla/5.0 (Windows NT 10.0; Win64; x64) AppleWebKit/537.36 (KHTML, like Gecko) Chrome/125.0.0.0 Safari/537.36" etag="bFhDERUujI7Dp8pxobYh" version="24.4.13" type="device">
  <diagram name="Page-1" id="urrX0BqP7gOqeBc0GH5a">
    <mxGraphModel dx="2600" dy="883" grid="1" gridSize="10" guides="1" tooltips="1" connect="1" arrows="1" fold="1" page="1" pageScale="1" pageWidth="850" pageHeight="1100" math="0" shadow="0">
      <root>
        <mxCell id="0" />
        <mxCell id="1" parent="0" />
        <mxCell id="dUazeYfnmG6VWpRsBNlW-36" style="edgeStyle=orthogonalEdgeStyle;rounded=0;orthogonalLoop=1;jettySize=auto;html=1;entryX=0.5;entryY=0;entryDx=0;entryDy=0;" edge="1" parent="1" source="dUazeYfnmG6VWpRsBNlW-1" target="dUazeYfnmG6VWpRsBNlW-4">
          <mxGeometry relative="1" as="geometry" />
        </mxCell>
        <mxCell id="dUazeYfnmG6VWpRsBNlW-1" value="input a word" style="rounded=1;whiteSpace=wrap;html=1;" vertex="1" parent="1">
          <mxGeometry x="250" y="180" width="120" height="60" as="geometry" />
        </mxCell>
        <mxCell id="dUazeYfnmG6VWpRsBNlW-6" style="edgeStyle=orthogonalEdgeStyle;rounded=0;orthogonalLoop=1;jettySize=auto;html=1;exitX=1;exitY=0.5;exitDx=0;exitDy=0;entryX=0;entryY=0.5;entryDx=0;entryDy=0;" edge="1" parent="1" source="dUazeYfnmG6VWpRsBNlW-7" target="dUazeYfnmG6VWpRsBNlW-5">
          <mxGeometry relative="1" as="geometry" />
        </mxCell>
        <mxCell id="dUazeYfnmG6VWpRsBNlW-9" style="edgeStyle=orthogonalEdgeStyle;rounded=0;orthogonalLoop=1;jettySize=auto;html=1;entryX=1;entryY=0.5;entryDx=0;entryDy=0;" edge="1" parent="1" source="dUazeYfnmG6VWpRsBNlW-10" target="dUazeYfnmG6VWpRsBNlW-11">
          <mxGeometry relative="1" as="geometry">
            <mxPoint x="240" y="220" as="targetPoint" />
            <Array as="points">
              <mxPoint x="130" y="400" />
            </Array>
          </mxGeometry>
        </mxCell>
        <mxCell id="dUazeYfnmG6VWpRsBNlW-4" value="check if it is matched with correct word&amp;nbsp;" style="rhombus;whiteSpace=wrap;html=1;" vertex="1" parent="1">
          <mxGeometry x="290" y="360" width="80" height="80" as="geometry" />
        </mxCell>
        <mxCell id="dUazeYfnmG6VWpRsBNlW-30" style="edgeStyle=orthogonalEdgeStyle;rounded=0;orthogonalLoop=1;jettySize=auto;html=1;entryX=0.5;entryY=0;entryDx=0;entryDy=0;" edge="1" parent="1" source="dUazeYfnmG6VWpRsBNlW-5" target="dUazeYfnmG6VWpRsBNlW-29">
          <mxGeometry relative="1" as="geometry" />
        </mxCell>
        <mxCell id="dUazeYfnmG6VWpRsBNlW-5" value="if its matched, write that word in the guessed word" style="whiteSpace=wrap;html=1;" vertex="1" parent="1">
          <mxGeometry x="580" y="370" width="120" height="50" as="geometry" />
        </mxCell>
        <mxCell id="dUazeYfnmG6VWpRsBNlW-8" value="" style="edgeStyle=orthogonalEdgeStyle;rounded=0;orthogonalLoop=1;jettySize=auto;html=1;exitX=1;exitY=0.5;exitDx=0;exitDy=0;entryX=0;entryY=0.5;entryDx=0;entryDy=0;" edge="1" parent="1" source="dUazeYfnmG6VWpRsBNlW-4" target="dUazeYfnmG6VWpRsBNlW-7">
          <mxGeometry relative="1" as="geometry">
            <mxPoint x="410" y="220" as="sourcePoint" />
            <mxPoint x="480" y="220" as="targetPoint" />
          </mxGeometry>
        </mxCell>
        <mxCell id="dUazeYfnmG6VWpRsBNlW-7" value="yes" style="text;html=1;align=center;verticalAlign=middle;resizable=0;points=[];autosize=1;strokeColor=none;fillColor=none;" vertex="1" parent="1">
          <mxGeometry x="460" y="385" width="40" height="30" as="geometry" />
        </mxCell>
        <mxCell id="dUazeYfnmG6VWpRsBNlW-11" value="if it is not matched draw a line in hangman character" style="whiteSpace=wrap;html=1;" vertex="1" parent="1">
          <mxGeometry x="-10" y="370" width="120" height="60" as="geometry" />
        </mxCell>
        <mxCell id="dUazeYfnmG6VWpRsBNlW-12" value="this all should be in a while loop" style="text;html=1;align=center;verticalAlign=middle;resizable=0;points=[];autosize=1;strokeColor=none;fillColor=none;" vertex="1" parent="1">
          <mxGeometry x="-15" y="88" width="190" height="30" as="geometry" />
        </mxCell>
        <mxCell id="dUazeYfnmG6VWpRsBNlW-13" value="" style="edgeStyle=orthogonalEdgeStyle;rounded=0;orthogonalLoop=1;jettySize=auto;html=1;entryX=1;entryY=0.5;entryDx=0;entryDy=0;" edge="1" parent="1" source="dUazeYfnmG6VWpRsBNlW-4" target="dUazeYfnmG6VWpRsBNlW-10">
          <mxGeometry relative="1" as="geometry">
            <mxPoint x="130" y="410" as="targetPoint" />
            <mxPoint x="290" y="400" as="sourcePoint" />
            <Array as="points" />
          </mxGeometry>
        </mxCell>
        <mxCell id="dUazeYfnmG6VWpRsBNlW-10" value="no" style="text;html=1;align=center;verticalAlign=middle;resizable=0;points=[];autosize=1;strokeColor=none;fillColor=none;" vertex="1" parent="1">
          <mxGeometry x="190" y="385" width="40" height="30" as="geometry" />
        </mxCell>
        <mxCell id="dUazeYfnmG6VWpRsBNlW-35" style="edgeStyle=orthogonalEdgeStyle;rounded=0;orthogonalLoop=1;jettySize=auto;html=1;exitX=0.5;exitY=1;exitDx=0;exitDy=0;entryX=0.5;entryY=0;entryDx=0;entryDy=0;" edge="1" parent="1" source="dUazeYfnmG6VWpRsBNlW-14" target="dUazeYfnmG6VWpRsBNlW-1">
          <mxGeometry relative="1" as="geometry" />
        </mxCell>
        <mxCell id="dUazeYfnmG6VWpRsBNlW-14" value="while, word not guessed and lives left" style="rhombus;whiteSpace=wrap;html=1;" vertex="1" parent="1">
          <mxGeometry x="270" y="30" width="80" height="80" as="geometry" />
        </mxCell>
        <mxCell id="dUazeYfnmG6VWpRsBNlW-26" style="edgeStyle=orthogonalEdgeStyle;rounded=0;orthogonalLoop=1;jettySize=auto;html=1;exitX=0.5;exitY=1;exitDx=0;exitDy=0;entryX=0;entryY=0.5;entryDx=0;entryDy=0;" edge="1" parent="1" source="dUazeYfnmG6VWpRsBNlW-19" target="dUazeYfnmG6VWpRsBNlW-24">
          <mxGeometry relative="1" as="geometry" />
        </mxCell>
        <mxCell id="dUazeYfnmG6VWpRsBNlW-27" value="if live == 0" style="edgeLabel;html=1;align=center;verticalAlign=middle;resizable=0;points=[];rotation=3;" vertex="1" connectable="0" parent="dUazeYfnmG6VWpRsBNlW-26">
          <mxGeometry x="0.1854" y="4" relative="1" as="geometry">
            <mxPoint as="offset" />
          </mxGeometry>
        </mxCell>
        <mxCell id="dUazeYfnmG6VWpRsBNlW-33" style="edgeStyle=orthogonalEdgeStyle;rounded=0;orthogonalLoop=1;jettySize=auto;html=1;exitX=0;exitY=0.5;exitDx=0;exitDy=0;entryX=0;entryY=0.5;entryDx=0;entryDy=0;" edge="1" parent="1" source="dUazeYfnmG6VWpRsBNlW-19" target="dUazeYfnmG6VWpRsBNlW-14">
          <mxGeometry relative="1" as="geometry">
            <mxPoint x="-90" y="310.0000000000001" as="targetPoint" />
            <Array as="points">
              <mxPoint x="-180" y="550" />
              <mxPoint x="-180" y="70" />
            </Array>
          </mxGeometry>
        </mxCell>
        <mxCell id="dUazeYfnmG6VWpRsBNlW-19" value="reduce life by 1" style="rhombus;whiteSpace=wrap;html=1;" vertex="1" parent="1">
          <mxGeometry x="10" y="490" width="80" height="120" as="geometry" />
        </mxCell>
        <mxCell id="dUazeYfnmG6VWpRsBNlW-22" style="edgeStyle=orthogonalEdgeStyle;rounded=0;orthogonalLoop=1;jettySize=auto;html=1;entryX=0.485;entryY=0.069;entryDx=0;entryDy=0;entryPerimeter=0;" edge="1" parent="1" source="dUazeYfnmG6VWpRsBNlW-11" target="dUazeYfnmG6VWpRsBNlW-19">
          <mxGeometry relative="1" as="geometry" />
        </mxCell>
        <mxCell id="dUazeYfnmG6VWpRsBNlW-24" value="Game OVER" style="rounded=1;whiteSpace=wrap;html=1;" vertex="1" parent="1">
          <mxGeometry x="310" y="640" width="120" height="60" as="geometry" />
        </mxCell>
        <mxCell id="dUazeYfnmG6VWpRsBNlW-25" value="YOU WIN" style="whiteSpace=wrap;html=1;" vertex="1" parent="1">
          <mxGeometry x="500" y="640" width="120" height="60" as="geometry" />
        </mxCell>
        <mxCell id="dUazeYfnmG6VWpRsBNlW-31" style="edgeStyle=orthogonalEdgeStyle;rounded=0;orthogonalLoop=1;jettySize=auto;html=1;entryX=0.5;entryY=0;entryDx=0;entryDy=0;" edge="1" parent="1" source="dUazeYfnmG6VWpRsBNlW-29" target="dUazeYfnmG6VWpRsBNlW-25">
          <mxGeometry relative="1" as="geometry" />
        </mxCell>
        <mxCell id="dUazeYfnmG6VWpRsBNlW-37" style="edgeStyle=orthogonalEdgeStyle;rounded=0;orthogonalLoop=1;jettySize=auto;html=1;exitX=1;exitY=0.5;exitDx=0;exitDy=0;entryX=1;entryY=0.5;entryDx=0;entryDy=0;" edge="1" parent="1" source="dUazeYfnmG6VWpRsBNlW-29" target="dUazeYfnmG6VWpRsBNlW-14">
          <mxGeometry relative="1" as="geometry">
            <mxPoint x="410" y="200" as="targetPoint" />
          </mxGeometry>
        </mxCell>
        <mxCell id="dUazeYfnmG6VWpRsBNlW-29" value="if all spaces are used? check if word is correct" style="whiteSpace=wrap;html=1;" vertex="1" parent="1">
          <mxGeometry x="580" y="480" width="120" height="60" as="geometry" />
        </mxCell>
        <mxCell id="dUazeYfnmG6VWpRsBNlW-32" value="if word matched" style="text;html=1;align=center;verticalAlign=middle;resizable=0;points=[];autosize=1;strokeColor=none;fillColor=none;" vertex="1" parent="1">
          <mxGeometry x="625" y="578" width="110" height="30" as="geometry" />
        </mxCell>
        <mxCell id="dUazeYfnmG6VWpRsBNlW-34" value="if live !=0&amp;nbsp;&lt;div&gt;i.e. lives left&lt;/div&gt;" style="text;html=1;align=center;verticalAlign=middle;resizable=0;points=[];autosize=1;strokeColor=none;fillColor=none;" vertex="1" parent="1">
          <mxGeometry x="-165" y="530" width="90" height="40" as="geometry" />
        </mxCell>
      </root>
    </mxGraphModel>
  </diagram>
</mxfile>
